<svg width="840" height="840" viewBox="0 0 840 840" fill="none" xmlns="http://www.w3.org/2000/svg">
<path d="M422.7 0.599989C422.5 0.799989 420.8 1.19999 418.9 1.39999C414.3 1.79999 404.2 4.89999 403.4 6.09999C403.1 6.59999 402.4 6.79999 401.9 6.49999C401.4 6.09999 401 6.29999 401 6.79999C401 7.29999 400.4 7.69999 399.8 7.69999C398.2 7.69999 384.8 15.8 383.8 17.4C383.4 18 383 18.2 383 17.7C383 17.3 382.2 17.8 381.1 18.7C374 25.4 370 28.9 370 28.4C370 28 369 29 367.8 30.5C366.6 32.1 364.2 34.8 362.5 36.5C357.9 41.3 354.9 45.1 350.6 51.3C348.4 54.4 346.3 57 346 57C345.6 57 344.7 58.4 344 60C342.2 64.3 341.6 64.4 337 61.5C331.7 58.1 314.8 49.7 308 47C290.9 40.2 276 37.5 259.6 38.3C239.8 39.2 225.2 45.6 211.4 59.4C191.9 79 182.3 104.8 178.5 148L177.9 154.5L162.7 154.9C146.9 155.3 138.5 155.6 138.5 156C138.5 156.1 137.3 156.4 135.8 156.6C134.2 156.8 131.8 157.2 130.3 157.4C128.7 157.6 127.5 157.9 127.5 158C127.5 158.2 125.1 158.7 120 159.5C117.6 159.9 115.1 160.5 114.5 160.8C114 161.2 113.1 161.5 112.5 161.7C108.1 162.6 107 163 105.4 163.8C104.3 164.3 100.8 166 97.5 167.6C94.2 169.2 91.4 170.8 91.2 171.2C91 171.6 90.3 172 89.6 172C88.9 172 87.3 172.9 86 174C84.7 175.1 83.3 176 82.9 176C82.4 176 78.7 179.3 74.8 183.3C65.6 192.5 58.3 205.2 55.2 217C52.8 226.2 51.9 243.9 53.3 253.5C53.8 256.2 54.3 259.5 54.5 260.7C56.1 270.7 62.7 289.7 69.6 303.8L72.7 310.1L70.6 311.4C69.5 312.1 66.3 314 63.5 315.5C53.4 321.2 39.3 331.7 30.7 339.9C9.9 359.9 1 378.5 1 401.7C1 419.2 5.7 434.1 16 449.5C23.6 460.8 41 477.7 56.1 488.4L68.7 497.3L63.2 506.4C56.2 518 46.1 539.8 44.6 546.5C44.4 547 43.8 549.3 43.2 551.5C42.6 553.7 41.8 557.3 41.5 559.5C41.1 561.7 40.5 565.2 40 567.3C39.2 571.2 39.5 589.5 40.5 594.5C43.7 610.4 50.4 622.7 61.9 633.8C66.1 637.9 70.2 641.8 71 642.4C72.7 643.9 90 653.3 91.5 653.7C92.1 653.8 94.9 654.8 97.8 655.8C100.6 656.9 103 657.6 103 657.3C103 657 103.6 657.2 104.3 657.7C105.8 659 114.6 661.1 124 662.5C126 662.8 128.7 663.2 130 663.5C131.4 663.8 136.1 664.3 140.5 664.6C144.9 664.9 148.8 665.4 149.3 665.7C149.7 665.9 150 670.3 150 675.3C150.2 725.3 166.5 760.6 196.5 775.7C207.9 781.5 215.2 783.2 230.5 783.7C247 784.3 260.4 782.2 276.9 776.5C287.3 772.9 303.5 766 308.2 763.2C309.7 762.3 311.1 761.8 311.3 762.1C311.5 762.3 313.4 765.6 315.4 769.5C326 789.1 341.2 808.7 353.5 818.5C355.5 820.1 358.4 822.4 359.9 823.6C364.5 827.3 376.3 833.5 382.2 835.4C385.4 836.4 388.1 837.1 388.2 837.1C388.4 837 390.5 837.5 393 838.3C397.3 839.6 413.5 839.8 419 838.7C425.9 837.3 431.7 835.5 433.8 834.2C435 833.4 436 833.1 436 833.5C436 833.8 437.5 833.3 439.3 832.3C454.2 823.4 457 821.6 457 820.7C457 820.1 457.3 819.9 457.6 820.3C459 821.6 476.1 804.5 486 791.8C490 786.7 492.3 783.6 496.4 777.6C497.7 775.7 497.9 775.8 503.6 779.2C521.3 789.9 544.4 798.8 559.9 801.1C570.9 802.6 588.5 801.7 597.2 799.2C609.4 795.5 617.6 790.4 628 780C638.6 769.4 644.2 760.6 649.8 745.6C655.4 730.7 657.7 718.9 660.6 689.5L661.1 684.5L677.3 684.4C686.2 684.3 696 683.9 699 683.5C702 683.1 705.9 682.7 707.5 682.5C709.2 682.3 710.5 682.1 710.5 682C710.5 681.8 712.5 681.4 716.7 680.7C718.4 680.4 720.3 679.9 720.8 679.6C721.2 679.3 723 678.8 724.6 678.5C729.2 677.5 728.6 677.8 740 672.8C752.1 667.6 761.2 660.7 770.7 649.7C773.9 645.9 782.7 629.3 783.5 625.3C784 623 784.5 620.8 785.6 616.7C786.6 612.9 786.9 589.3 786 585.3C785.5 583.2 784.8 579.9 784.5 578C782.8 568.2 777.4 552.2 771.3 539.1C767.9 531.8 767.2 529.5 768.2 528.9C768.9 528.4 773.4 525.8 778.1 523C809.8 504.1 830.6 479.9 836.5 454.8C838.4 446.6 838.4 430.6 836.5 420.6C834.5 410.4 828.1 396.8 820.3 386.5C810.2 373.2 791.6 356.5 775.3 346.2C772.9 344.7 771 343 771 342.5C771 341.9 772.1 339.9 773.4 338C775.6 334.7 781.2 324.4 786.5 314C787.8 311.5 789.6 307.5 790.5 305C791.5 302.5 792.6 299.6 793.1 298.5C793.9 296.7 797.6 283.8 798.5 279.9C800.1 272.7 800.7 255 799.7 248C798.5 240.6 794.2 228 790.7 222C788.3 217.9 780.1 207 778.4 205.5C777.7 204.9 775.7 203.4 774 202C772.2 200.6 770 198.8 769 197.9C766.1 195.2 749.7 186.4 745 185C742.5 184.2 740 183.3 739.4 182.8C738.7 182.3 737.3 181.7 736.1 181.5C734.9 181.2 733.1 180.8 732 180.5C729.4 179.9 726.4 179.2 722 178.3C717.3 177.3 717 177.3 716.8 177C716.6 176.9 715.2 176.7 713.5 176.5C711.9 176.4 710.5 176.1 710.5 176C710.5 175.9 708.7 175.6 706.5 175.5C704.3 175.3 702.5 175.1 702.5 175C702.5 174.9 699.8 174.6 696.5 174.5C693.2 174.3 690.2 174.2 689.9 174.1C689.6 174.1 689 166.9 688.7 158.2C687.4 126.5 681.2 104.3 668.6 86.7C647.1 56.4 608.6 48 562.3 63.5C556.4 65.5 546.4 69.5 540.1 72.6C533.8 75.6 528.6 77.9 528.4 77.8C528.3 77.6 526 73.7 523.2 69C514.5 54 513.6 52.6 511.1 49C509.7 47.1 508.3 45.3 508 45C507.7 44.7 505.7 42.2 503.6 39.5C498.1 32.5 486.5 21.1 480 16.3C474.1 12 461 4.49999 461 5.49999C461 5.79999 459.7 5.39999 458 4.49999C456.4 3.59999 455 3.19999 455 3.59999C455 3.99999 454.4 3.79999 453.8 3.19999C453.1 2.69999 450.9 1.89999 449 1.49999C445.1 0.699989 423.4 -1.10022e-05 422.7 0.599989ZM442 35.3C442.8 35.5 444.8 36 446.4 36.5C450.2 37.5 458 41.9 458 43C458 43.5 458.9 44.2 460.1 44.5C461.3 44.9 465.2 48.2 468.9 51.9C476.8 59.9 478.3 61.7 483.5 69.5C485.7 72.8 487.8 75.7 488.1 76C488.5 76.3 491.1 80.9 493.9 86.2L499.1 95.9L492.8 100.1C479.9 108.8 462.3 122.8 437.9 143.8L434.1 147.1L427.3 139.8C412.4 123.8 399.9 111.4 385.3 98.3C376.9 90.7 370 84.2 370 83.9C370 83.5 375.7 75.3 378.7 71.5C379.2 70.9 380.4 69.1 381.4 67.5C382.4 65.8 387.6 60.2 393 54.9C404.6 43.4 414.6 37.2 424.4 35.3C425.5 35.1 426.6 34.8 426.8 34.6C427.3 34.1 439.9 34.6 442 35.3ZM283.8 74.6C288.5 76 295.6 78.5 299.5 80.2C309.2 84.4 324 93.2 324 94.7C324 95.3 322.6 98.3 320.9 101.2C319.2 104.1 317.6 107.3 317.4 108.3C317.2 109.3 315.9 112.2 314.5 114.6C313.1 117 312.2 119 312.5 119C312.8 119 312.1 120.8 311 123C309.9 125.2 309.2 127 309.6 127C310 127 309.8 127.6 309.2 128.3C308.2 129.5 305.3 136.9 304.5 140.4C304.3 141.4 303.6 142.8 303 143.6C302.3 144.3 302.1 145.4 302.4 145.9C302.8 146.4 302.6 147.1 302 147.5C301.2 148 300.4 150.3 298.5 157C298.4 157.3 297.8 159.3 297.2 161.5C296.6 163.7 296 165.8 296 166.2C296 166.6 295.1 169 294 171.5C292.9 174 291.9 176.4 291.8 176.8C291.5 177.4 289.9 177.4 287.5 176.6C287 176.5 285.2 176 283.5 175.5C281.9 175.1 280.1 174.5 279.5 174.1C279 173.8 278.1 173.5 277.5 173.3C276.6 173.1 274.6 172.7 270 171.5C267.8 170.9 264 170 262.5 169.6C262 169.5 259.9 168.9 258 168.2C256.1 167.6 253.4 166.9 252 166.6C250.6 166.3 248.5 165.9 247.3 165.6C243.1 164.5 240.6 164 236.9 163.5C234.9 163.2 231.9 162.5 230.2 162C228.4 161.5 227 161.4 227 161.6C227 161.9 226.4 161.8 225.8 161.3C225.1 160.9 223.4 160.5 222 160.4C220.6 160.3 219.5 160.2 219.5 160.1C219.5 159.9 218.4 159.7 217 159.4C211.7 158.5 211.8 158.6 212.5 149.2C215.3 111.9 226 86.7 243.2 76.6C253.5 70.6 267.5 69.9 283.8 74.6ZM615.1 90.4C638 95.3 650.3 113.6 654 148C654.5 153.2 655 161.3 655 166V174.5L648.3 174.9C644.5 175.1 639.7 175.3 637.5 175.4C635.3 175.5 633.1 175.8 632.5 176.1C632 176.4 629.5 176.8 627 177C621.3 177.3 617.5 177.8 617.5 178C617.5 178.3 613.7 178.9 609.1 179.5C606.7 179.7 604 180.1 603.1 180.4C602.2 180.7 599.7 181.1 597.5 181.5C591 182.4 587.7 183.1 587.1 183.5C586.7 183.7 584.4 184.1 582 184.5C576.9 185.3 574.5 185.8 574.5 186C574.5 186.2 571 187 567.5 187.6C564.3 188.1 564.2 187.8 561.6 173.3C561.5 172.6 561.1 171.7 560.7 171.4C560.3 171 560 169.8 560 168.8C560 165.1 546.8 120.9 545 118.5C544.5 117.9 544 116.1 543.7 114.3C543.4 112.6 542.9 110.6 542.5 110C541 107.6 575.2 93.5 588.6 91.1C601.9 88.7 606.3 88.6 615.1 90.4ZM362.4 122.9C367.2 126.9 379.8 139.3 390.6 150.3L410.2 170.3L404.3 176.4C394.7 186.5 383.8 198.2 378.7 203.9L373.9 209.4L371 207.6C369.4 206.7 367.9 206 367.7 206.2C367.6 206.4 365.4 205.7 363 204.6C353.6 200.7 352.4 200.2 348.5 198.4C346.3 197.4 344.3 196.6 344 196.6C343.2 196.4 336.9 194 333.5 192.6C331.9 191.8 329.2 190.7 327.7 190.1C325.5 189.2 325 188.5 325.5 187.2C326.3 185.1 327.1 181.9 327.2 180.2C327.3 179.6 327.6 179 328 179C328.4 179 328.7 178.4 328.8 177.7C329.1 173.3 337.5 149.8 345.3 131.5C351.3 117.4 352.5 115 353.2 115.3C353.6 115.4 357.7 118.8 362.4 122.9ZM523.6 161.5C524.5 164.8 525.4 168.4 525.6 169.5C525.7 170.6 525.9 171.6 525.9 171.7C526 171.9 526 172.2 526.1 172.5C526.1 172.7 527 176 528.1 179.7C529.2 183.5 530.3 187.6 530.5 189C530.7 190.4 531.2 192.9 531.5 194.6C532 196.8 531.8 197.7 530.8 197.8C530.1 197.8 528.4 198.1 527 198.5C525.6 198.8 524.1 199.2 523.5 199.3C523 199.5 522.1 199.8 521.5 200.2C521 200.5 518.9 201.1 517 201.5C515.1 201.9 513.1 202.5 512.5 202.8C512 203.2 511.1 203.5 510.5 203.7C507.2 204.4 504.6 205.2 497 207.9C492.3 209.5 487.8 211 486.9 211.2C485.7 211.4 480.6 205.4 470.6 192.2L455.9 172.9L461.4 167.9C474.7 155.7 495.8 138.7 507.5 130.7L512.5 127.3L517.2 141.4C519.8 149.2 522.7 158.2 523.6 161.5ZM179.2 197.5C181.1 217.5 186.8 255.5 190.2 270C190.4 270.8 184.9 272.5 175.5 274.6C156 279 131.7 286 116.2 291.6C109.4 294.1 103.7 296 103.5 295.8C103.3 295.6 102 292.9 100.6 289.7C99.2 286.6 96.9 281.6 95.6 278.6C93 272.9 88.6 257.5 87.4 250C86.7 245 86.7 231.6 87.5 228.2C87.8 227 88.2 225 88.5 223.8C88.7 222.6 89.4 221.2 90 220.6C90.5 220.1 91 219 91 218.2C91 216.7 93.5 213.2 98.8 207.3C100.5 205.4 102 204.1 102 204.6C102 205.1 102.4 205 102.8 204.4C103.6 203.1 111.9 197.8 113.4 197.6C114 197.5 115 197.1 115.7 196.7C117.1 195.8 125.4 193.1 128.8 192.5C134.5 191.3 136.8 190.9 141 190.4C143.5 190 145.6 189.7 145.7 189.6C145.8 189.6 153.2 189.5 162.2 189.5H178.5L179.2 197.5ZM221.1 194.5C223.1 194.8 226.1 195.5 227.8 196C229.6 196.5 231 196.6 231 196.4C231 196.1 231.6 196.2 232.3 196.7C232.9 197.1 234 197.5 234.5 197.7C236.3 198.1 240.5 199 243 199.5C249 200.8 250.1 201 252 201.5C256.6 202.7 258.6 203.1 259.5 203.3C260.1 203.5 261 203.8 261.5 204.1C262.1 204.5 263.9 205.1 265.5 205.5C269.2 206.5 270.7 206.9 272.3 207.4C272.9 207.6 275 208.1 276.8 208.5C278.6 208.9 280.3 209.7 280.6 210.1C280.9 210.6 281.6 210.8 282.1 210.4C283.1 209.8 282.9 211.1 280.3 221.5C279.4 224.8 278.6 228.4 278.4 229.5C278.3 230.6 277.9 232.6 277.6 234C277.3 235.4 276.5 238.7 276 241.5C272.6 258.1 272.4 258.5 269.9 259.2C268.6 259.6 259.4 260.8 249.5 262C239.6 263.2 229.9 264.4 227.9 264.7L224.3 265.2L222.7 257.4C219.1 240.3 213 200.5 213 193.8C213 193.4 214 193.3 215.2 193.5C216.4 193.8 219.1 194.2 221.1 194.5ZM442.4 210.7L452.9 224.4L448.2 226C445.6 227 442.3 228.3 441 229C439.6 229.7 438.3 230.3 438 230.3C437.3 230.3 433 231.9 429.9 233.5C428 234.4 426.8 234.5 425.4 233.7C424.4 233.1 423 232.5 422.3 232.4C421.6 232.3 417.7 230.3 413.5 228L405.8 223.8L410.1 219.1C416.7 212.1 431.4 197 431.7 197C431.8 197 436.7 203.2 442.4 210.7ZM702 209.5C703.4 209.7 706.5 210.1 709 210.4C711.5 210.7 716.7 211.9 720.5 213.1C724.4 214.2 728.3 215.3 729.2 215.5C730.1 215.7 731.9 216.4 733.2 217.1C734.5 217.8 735.8 218.3 736.2 218.2C737 218 745.9 223.1 748.6 225.2C754.6 230 760.2 237.2 762.6 243C764.8 248.5 765.2 251 765.2 259.5C765.2 265 764.7 270.8 764.1 272.4C763.5 274 763.2 275.5 763.5 275.8C763.7 276.1 763.5 276.9 763 277.6C762.4 278.2 762 279.2 762.1 279.6C762.2 280.1 762 281.2 761.7 282C761.4 282.8 760.4 285.7 759.5 288.5C758.6 291.2 757.2 294.5 756.4 295.7C755.6 296.9 755 298.5 755 299.1C755 300.5 747.4 314.1 742.7 321.1L739.7 325.7L727.6 320.2C712.2 313.3 692 305.4 675.9 300.1L663.3 295.9L667.2 283.7C673.9 262.8 685 216.9 685 209.9C685 208 685.5 207.9 692.3 208.4C696.3 208.8 700.7 209.2 702 209.5ZM650.6 210.8C650.3 211.8 649.8 214.3 649.4 216.5C647 230.9 642 250.6 634.8 273.6L630.8 286.7L624.1 284.8C620.5 283.8 609 281.1 598.5 278.8C588.1 276.6 579.3 274.5 579.1 274.4C578.9 274.2 578.1 269.4 577.4 263.7C576.7 258.1 575.8 251 575.4 248C575.1 245 574 237.9 573 232.2C572.1 226.6 571.7 221.9 572.2 221.9C574.1 221.6 574.5 221.4 575.5 220.8C576.1 220.5 578.5 219.9 581 219.5C583.5 219.1 585.8 218.7 586.1 218.4C586.5 218.2 588.5 217.8 590.5 217.4C595.9 216.6 597.9 216.2 600 215.5C601 215.2 603.4 214.7 605.2 214.5C607 214.3 609.6 213.9 611 213.5C616 212.4 623.5 211.4 635 210.3C638.6 210 641.6 209.7 641.7 209.6C641.8 209.6 643.9 209.4 646.5 209.3C650.3 209.2 651 209.5 650.6 210.8ZM321 224.1C324 225.2 327 226.2 327.5 226.4C328.1 226.5 330 227.4 331.8 228.3C333.5 229.3 335 229.8 335 229.5C335 229.1 336.7 229.7 338.8 230.8C340.8 231.8 344.4 233.6 346.7 234.6L351 236.5L343.7 245.6L336.5 254.7L330.6 255.4C327.4 255.7 321 256 316.4 256H308.1L308.6 252.7C308.9 251 309.8 247.2 310.5 244.5C311.3 241.7 312.1 238.4 312.3 237C312.9 233.8 315.4 222 315.5 222C315.5 222 318 222.9 321 224.1ZM538.8 231.2C538.8 231.9 539.1 233.8 539.3 235.5C539.8 238.3 542.4 256 543.5 264.2C544.1 268.7 544.9 268.5 531 266.4L520.5 264.8L513.1 253.3C505.7 241.9 505.4 240.4 509.6 239.6C510.6 239.4 512.9 238.6 514.5 238C516.2 237.4 518.2 236.7 519 236.5C520.3 236.2 538.3 230.3 538.6 230.1C538.6 230 538.7 230.6 538.8 231.2ZM440.5 290.1L458.5 291.2L467 295.7C471.7 298.2 476 300.7 476.5 301.4C477.1 302.1 481 304.5 485.2 306.9C489.5 309.2 493.6 311.7 494.2 312.4C494.9 313.1 498.4 315.3 502 317.4C505.6 319.5 508.7 321.5 509 321.9C509.3 322.3 511.5 323.7 513.9 325.1C517.8 327.4 519.1 329.3 527.3 344.6C532.2 353.9 539.4 368 543.3 376L550.2 390.5L550.1 404C550.1 411.4 549.8 421.3 549.5 426C549.3 430.7 548.8 439.9 548.5 446.5C548 455.3 547.4 459.6 545.9 462.6C544.9 464.8 538.5 475.2 531.7 485.6C509 520.5 511.9 517 499.5 524.4C493.4 527.9 487.8 531 487 531.2C486.2 531.4 485.3 531.7 485 532C484.4 532.6 480.5 534.7 466 542.2C459.7 545.5 453.9 548.7 453.3 549.2C452.6 549.8 452 550 452 549.6C452 549.2 450.6 549.7 448.8 550.6C445.3 552.4 438.9 552.3 399 549.9L381.5 548.8L372.3 543.9C367.2 541.1 362.8 538.5 362.5 538C362.2 537.5 357.9 534.8 353 532C348.1 529.2 343.8 526.4 343.4 525.9C343.1 525.4 340.8 523.9 338.2 522.6C335.6 521.3 332.4 519.2 331 518C329.6 516.8 327.2 515.1 325.5 514.3C323.9 513.4 321.7 511.9 320.8 510.9C318.6 508.7 303.7 480.8 295.2 463.1L288.7 449.6L289.4 426.6C290.2 400.1 290.9 385.7 291.5 381.6C292.1 378.4 299.2 366.7 317.3 339.3C328.9 321.7 329.5 320.9 336 317.1C339.6 314.9 343.3 313 344.1 312.8C344.8 312.6 346.1 311.9 346.8 311.2C347.5 310.6 348.8 310 349.6 310C350.4 310 351 309.5 351 309C351 308.4 351.5 308 352.2 308C352.8 308 356.4 306.2 360.1 304C363.8 301.8 367.3 300 367.9 300C368.4 300 371.3 298.6 374.2 296.9C377.1 295.1 380.1 293.7 380.8 293.7C381.4 293.7 382 293.3 382 292.8C382 292.3 382.3 292.1 382.8 292.3C383.2 292.6 385.1 291.7 387 290.4C390.4 288 390.8 288 406.5 288.5C415.3 288.8 430.6 289.5 440.5 290.1ZM266.5 295.2C266.2 296.5 265.7 300 265.4 303C265.2 306 264.7 309.2 264.4 310C264.1 310.8 263.6 313.5 263.3 316C262.8 320.2 259 325.7 257.6 324.2C257.3 323.9 257 324.3 257 325C257 325.7 256.7 326 256.3 325.7C256 325.3 255.2 325.7 254.6 326.4C254 327.2 251.2 329.2 248.4 330.8L243.2 333.8L238.6 318.7C236.1 310.3 233.8 302.1 233.4 300.4L232.8 297.3L248.2 295.3C268.6 292.6 267.4 292.6 266.5 295.2ZM203.4 320C205.9 328.5 209.3 339.5 211 344.4C213.8 352.9 214.7 357.1 213.4 355.7C213.1 355.4 212.1 355.8 211.2 356.6C210.2 357.3 205.9 360.7 201.5 364C193.1 370.3 189.2 373.3 185.7 376.3C184.5 377.3 182.2 379.1 180.7 380.3C179.2 381.5 176.7 383.5 175.2 384.7C172.5 387 170 387.7 170 386.2C170 385.8 167.4 382.8 164.2 379.4C161.1 376.1 156.3 370.7 153.5 367.5C150.8 364.3 148.1 361.2 147.5 360.6C144.1 356.8 137.3 348.2 131.6 340.5C128 335.5 124.6 331 124.2 330.4C123.7 329.9 122.8 328.4 122.2 327.3C121.1 325.4 121.6 325 129.8 322.1C143.7 317.2 157.3 313.2 174.5 309C196.4 303.7 198.5 303.3 198.7 303.9C198.8 304.2 201 311.5 203.4 320ZM599.7 313.1C609.5 315.4 617.9 317.5 618.3 318C619.1 318.7 606.7 350 605.6 350C605.3 350 599.7 345.8 595.4 342.2C594.2 341.3 592 339.6 590.4 338.5C583.2 333.3 583.6 334.1 582.5 321.1C582 314.4 581.6 309 581.7 309C581.8 309 589.9 310.8 599.7 313.1ZM696.5 343.3C721.8 353.9 720 353 718.2 354.9C717.2 355.9 715 358.4 713.1 360.6C700.6 375.1 693.6 382.4 677.7 397.4L668.8 405.7L663.1 400.1C659.9 397 653.8 391.3 649.5 387.5C645.1 383.6 639.6 378.7 637.2 376.5L632.9 372.5L636 365.5C639.1 358.6 650.1 332.2 651.3 328.8C651.9 327.2 653.6 327.6 667.8 332.5C676.5 335.5 689.4 340.4 696.5 343.3ZM94 345.3C99.6 353.7 118.2 378.4 121 381C121.3 381.3 123.8 384.2 126.5 387.5C133.2 395.5 137.6 400.4 142.9 405.7C145.3 408 146.8 410 146.4 410C145.9 410 141.1 414.3 135.6 419.5C130.2 424.7 125.3 429 124.7 429C124.1 429 123.9 429.2 124.2 429.6C124.5 429.9 122 432.9 118.6 436.4C113.2 441.9 109.9 445.5 96.5 460.5C94.9 462.4 92.6 465 91.5 466.4C90.4 467.8 89.1 468.9 88.7 469C88.3 469 85.1 467.1 81.7 464.8C65.6 454 51.3 440.8 44.3 430.4C40.5 424.8 36.8 418.3 37.1 417.8C37.2 417.6 36.7 415.5 36 413C34.3 406.6 34.4 396.4 36.3 390C39.6 378.8 51.3 364.6 65.6 354.4C73.8 348.5 88 340 89.4 340C90 340 92.1 342.4 94 345.3ZM755.5 374.1C777.6 388.1 797.4 409.1 802.4 423.7C808 440.2 803.7 455.7 789.2 471.1C780.7 480.3 770.6 488.1 758.1 495.4C748.8 500.9 750.4 501.4 743.3 491C741.2 488 738.9 484.9 738.3 484.2C737.6 483.5 737 482.6 737 482.2C737 481.8 735.7 480.1 734.2 478.4C732.7 476.6 730.8 474.2 730 473C728.6 471 727.7 469.8 723.2 464.5C722.3 463.4 719.7 460.3 717.5 457.5C715.3 454.8 711.9 450.8 710 448.6C708.1 446.5 705.2 443.3 703.7 441.6C702.2 439.9 699.1 436.7 696.9 434.4L693 430.3L713.5 409.4C739.9 382.6 743 379.3 746.4 374.7C748 372.7 749.5 371 749.9 371C750.3 371 752.8 372.4 755.5 374.1ZM230.8 399.8L235 410.7L228.4 422.8C224.1 430.8 221.4 434.8 220.7 434.3C219.5 433.6 217.4 431.7 209.9 424.8C207.9 423 203.9 419.4 201.1 416.8L195.9 412L198.6 409.8C200.1 408.5 201.8 407 202.4 406.5C204.2 404.8 209.4 400.7 213 398C214.8 396.6 218.2 394 220.4 392.3C222.7 390.5 225 389 225.6 389C226.1 389 228.5 393.9 230.8 399.8ZM624.8 410.5C637.9 422.3 643.4 428.1 642.4 428.8C640.3 430.1 634.7 434.5 632.4 436.5C631.2 437.6 628.9 439.4 627.4 440.5C625.8 441.6 623.8 443.3 622.8 444.2C621.8 445.2 621 445.8 621 445.5C621 445 617.9 447.4 614.9 450.2C612.7 452.3 613.2 453 608.1 440L604 429.4L610.8 416.8C616.3 406.3 617.7 404.4 618.9 405.3C619.7 406 622.4 408.3 624.8 410.5ZM180.5 443.5C182.9 445.7 187.6 450 191.1 453.2C194.6 456.3 199.3 460.4 201.5 462.4C203.7 464.3 205.8 466 206.2 466C206.6 466 205 470.2 202.6 475.2C200.3 480.3 195.8 490.9 192.6 498.7L186.8 512.8L173.6 508.3C149 499.9 119.6 487.7 120.2 486.1C120.7 484.6 128.3 475.9 134.8 469.2C138.2 465.7 141 462.4 141 461.9C141 461.3 141.5 461.2 142 461.5C142.6 461.8 143 461.7 143 461.1C143 460.2 156 447.1 166.4 437.5L170.3 433.9L173.3 436.7C174.9 438.2 178.2 441.3 180.5 443.5ZM683 468.6C684.4 470.2 687.8 474.2 690.5 477.5C693.3 480.8 696 484 696.5 484.7C697.1 485.3 698.5 487.1 699.7 488.7C700.9 490.2 702.7 492.5 703.7 493.7C704.7 494.8 706.2 496.8 707 498C707.8 499.2 709 500.8 709.5 501.4C712.2 504.4 718.3 514.1 717.8 514.5C715.4 516.9 678.2 528 654.9 533.4L640.3 536.7L637 525.1C635.2 518.7 631.8 507.3 629.3 499.7C625.2 487 625 485.8 626.5 483.8C627.3 482.5 628 481.9 628 482.3C628 482.7 628.8 482.3 629.8 481.5C630.7 480.7 633.3 478.7 635.5 477C644.1 470.5 645.4 469.5 646.7 468.2C647.4 467.5 648 467.1 648 467.5C648 467.9 648.6 467.5 649.3 466.8C650.1 466.1 652.1 464.4 653.9 463C655.7 461.6 657.7 460 658.3 459.5C659 458.9 661.3 457 663.4 455.1L667.3 451.8L673.9 458.7C677.5 462.6 681.6 467 683 468.6ZM246 498.7C256.9 507.1 256 505.5 256.6 517.5C256.8 523.4 257.3 528.6 257.5 529.1C258.8 531 255.3 530.6 238.5 526.6C222.3 522.8 220.5 522.2 220.7 520.4C220.8 519.3 223.7 511.8 227.1 503.7L233.3 489L236.9 491.7C238.9 493.2 243 496.3 246 498.7ZM599.3 517.7C601.3 524.2 603.7 532.5 604.8 536.1L606.7 542.7L592.6 544.4C584.8 545.4 577.2 546.4 575.6 546.7L572.7 547.2L573.3 541.9C573.7 538.9 574.2 534.9 574.5 533C575.7 524.8 575.8 523.4 575.9 520.8C576 518.8 576.9 517.6 580 515.9C582.2 514.6 584 513.2 584 512.8C584 512.3 584.5 512.2 585 512.5C585.6 512.8 586 512.6 586 512C586 511.4 586.5 511.2 587 511.5C587.6 511.8 588 511.7 588 511.2C588 510.3 593.8 506.1 595.1 506C595.4 506 597.3 511.3 599.3 517.7ZM122 524.2C134.8 529.8 151.6 536.1 166.1 540.9L175.7 544.1L171.4 557.4C166.3 573.4 159.1 601.8 155.9 618.7L153.6 630.9L146.6 630.4C134.2 629.6 127 628.5 115.5 625.6C110.6 624.4 106.5 622.7 97.1 618.1C86.7 613 77.2 601.4 74.5 590.5C73.8 587.4 73.7 574.1 74.4 570.4C74.7 569.2 75.1 566.5 75.4 564.4C76.1 560 79.2 551.3 82.2 545.7C83.2 543.7 83.9 542 83.5 542C82.4 542 94.5 519.8 97.8 516C99.2 514.2 99.6 514.3 104.9 516.7C108 518.1 115.7 521.5 122 524.2ZM741.2 555.5C749.1 573.1 752.9 589.2 752.5 603C752.3 607.3 751.7 611.8 751 612.9C750.4 614.1 750.2 615 750.5 615C750.8 615 750.4 616.3 749.6 617.9C748.7 619.5 748.4 621 748.7 621.4C749.1 621.7 748.8 622 748.1 622C747.4 622 747.1 622.4 747.4 622.9C749 625.5 729.8 641.4 723.7 642.6C722.6 642.8 721.3 643.4 720.6 643.9C720 644.4 717.7 645.2 715.5 645.6C710.4 646.6 710.1 646.7 709.8 647C709.3 647.3 705.7 648 702 648.4C700.1 648.6 698.5 648.9 698.5 649C698.5 649.9 666.2 651 662.4 650.2C660.4 649.8 660.2 649 659.5 641.2C658.5 628.3 654.3 599.4 651.1 583.2C649.2 573.4 648.6 568.7 649.4 568.5C650 568.3 657 566.7 665 565C683.1 561 705.7 554.5 722 548.7C728.9 546.2 734.9 544.3 735.4 544.4C735.9 544.5 738.5 549.5 741.2 555.5ZM249.4 563.1L260.7 565.4L261.9 577.4C262.6 584.1 263.6 591.5 264 594C264.5 596.5 265.1 601.2 265.5 604.5C266.1 610.3 266.4 611.9 267.5 615.9C268 617.4 267.2 618 263.3 619C257.7 620.4 256.5 620.6 251.5 621.4C249.5 621.8 247.5 622.2 247.1 622.4C246.8 622.7 244.5 623.1 242 623.5C239.5 623.9 237.2 624.4 236.8 624.6C236.4 624.9 234.1 625.3 231.8 625.5C229.4 625.8 226.4 626.2 225 626.5C218.9 627.8 213 628.5 198.5 629.6C194.1 629.9 190.1 630.3 189.5 630.3C186.8 630.8 194.7 596 204.5 564.5L207.9 553.4L223 557.1C231.3 559.2 243.2 561.9 249.4 563.1ZM308 573.6C313.8 574.4 318.5 575.2 318.6 575.3C318.7 575.4 321.9 580.5 325.8 586.7C331.4 595.6 332.6 598.1 331.6 598.9C330.4 599.9 322.9 602.5 318 603.7C317.2 603.9 316.1 604.2 315.5 604.3C315 604.4 313.9 604.9 313.3 605.3C312.1 606 310.4 606.5 306.3 607.4C305.6 607.5 304.7 607.9 304.4 608.3C304 608.7 302.9 609 302 609C300.2 609 299.8 607.3 298.4 593.7C298.1 590.8 297.7 588.3 297.5 588C297.3 587.7 296.9 584.3 296.5 580.5C296.1 576.6 295.6 573.2 295.3 572.7C294.7 571.7 296.3 571.8 308 573.6ZM615 575.4C615 575.7 616.3 582.6 617.9 590.7C620.6 603.9 623.6 623.9 625.5 640.2L626.1 646H623.2C621.6 646 620 645.7 619.6 645.3C619.3 644.9 618.4 644.5 617.7 644.4C610.8 643.3 608.3 642.9 607 642.5C606.2 642.3 604.4 641.9 603 641.6C601.6 641.3 599.4 640.9 598 640.6C596.6 640.3 594.2 639.7 592.5 639.4C590.9 639.1 589.1 638.5 588.5 638.2C588 637.8 587.1 637.5 586.5 637.3C585.6 637.1 583.6 636.7 579 635.5C577.9 635.2 576 634.7 574.8 634.4C573.5 634.1 572.1 633.8 571.5 633.6C571 633.4 569.2 633 567.5 632.5C565.9 632.1 564.1 631.5 563.5 631.1C563 630.8 562.3 630.5 562 630.4C556.7 629.4 554.7 627.6 556.7 625.6C557.1 625.3 557.5 624.4 557.6 623.7C557.8 623 558.1 621.4 558.4 620C558.7 618.6 559.5 615 560.1 612C560.7 609 561.5 605.8 561.8 605C562.5 602.9 562.9 601.1 563.5 596.5C563.8 594.4 564.5 590.8 565.1 588.5C565.7 586.3 566.3 583.8 566.5 583C566.8 580.9 568.9 580.4 591 577.7C612.2 575 615 574.8 615 575.4ZM530.4 587.2C530 589 529.6 591.4 529.4 592.5C528.9 596 527.9 600.4 526.8 604.5C526.3 606.7 525.6 609.4 525.3 610.5C525.1 611.6 524.7 613.2 524.5 614C524.3 614.8 524.1 616.1 524.1 616.8C524 617.8 523.3 617.7 521 616.5C519.4 615.6 518 615.2 518 615.6C518 615.9 516.5 615.3 514.8 614.2C513 613 511.1 612.2 510.7 612.2C509.6 612.2 504 610.1 500.7 608.4C499.2 607.5 497 606.7 495.9 606.5C492.3 605.8 488.8 603 489.8 601.7C490.2 601 493.4 597 496.8 592.8C503.8 584.1 502.7 584.5 521.3 584.2L531.2 584L530.4 587.2ZM415.5 606.3C420.8 608.4 433 615.4 432.8 616.2C432.6 616.7 426.9 623 420 630.3L407.5 643.6L405.5 641.1C404.4 639.7 399.6 633.4 394.8 627.1L386.1 615.6L391.8 613.2C394.9 611.9 398 610.7 398.5 610.6C400.1 610.2 405.3 607.9 408 606.4C411 604.8 411.6 604.8 415.5 606.3ZM358.5 634.7C361.2 638.5 367.9 647.3 373.4 654.4L383.3 667.3L378.9 671.2C359.8 687.9 341 703 331.3 709.3C326.4 712.4 326.3 712.4 323.5 702.5C322.5 699.2 321.4 696 321 695.5C319.9 693.9 310.1 657.3 307.6 645.2C307.3 643.6 307.8 642.6 309.3 641.8C310.5 641.2 311.7 640.7 312 640.8C312.3 640.9 315.7 640 319.5 638.8C323.4 637.6 327.2 636.5 328 636.3C328.8 636.1 330 635.8 330.5 635.7C331.1 635.6 332 635.2 332.5 634.9C333.3 634.4 338 633 340 632.6C340.3 632.5 341 632.2 341.5 631.9C342.4 631.3 347.6 629.8 349.2 629.6C349.5 629.5 350.2 629.2 350.6 628.7C352.2 627.1 353.8 628.3 358.5 634.7ZM476.3 635C478.4 636.2 480 636.9 480 636.5C480 636.2 481.7 636.7 483.8 637.8C485.8 638.9 489.5 640.5 492 641.5C494.5 642.4 497.3 643.6 498.4 644.2C499.4 644.7 501 645.3 501.9 645.5C505.7 646.4 512.6 649.2 513.7 650.3C514.6 651.2 514 653.8 511.4 661.5C509.4 667 507.7 672.3 507.5 673.2C507.3 674.1 506.7 675.7 506.1 676.8C505.5 677.9 505.4 679 505.7 679.4C506 679.7 505.7 680 505 680C504.3 680 503.9 680.3 504.3 680.6C504.6 680.9 503.8 683.6 502.5 686.6C501.2 689.6 500.3 692 500.6 692C500.8 692 500.2 693.7 499.1 695.7C498.1 697.8 497.2 699.8 497.1 700.3C497.1 700.7 496.3 702.4 495.5 704C494.6 705.7 494.2 707 494.5 707C494.8 707 493.8 709.4 492.3 712.2C490.8 715.1 489.5 718.1 489.4 718.8C489.2 719.5 488.4 721.2 487.5 722.6L485.9 725.1L482.2 722.1C473.7 715.4 453.7 696.1 441.8 683.4L429.1 669.7L442.4 655.6C449.7 647.8 457.9 639 460.6 636L465.5 630.4L469.1 631.7C471.1 632.3 474.3 633.9 476.3 635ZM275.4 657C275.7 658.9 277.3 665.3 278.9 671.2C280.5 677.2 281.6 682 281.3 682C281 682 281.2 682.6 281.8 683.3C282.4 684 283 685.7 283.2 687C283.7 690.2 294 722.2 295 723.5C295.4 724 296.1 726 296.5 727.8L297.2 731.1L286.8 735.9C243.1 756.6 213.2 755.4 197.4 732.3C189.2 720.3 185.3 705 184.3 680.7L183.7 665L189.3 664.9C195.6 664.7 200.9 664.4 201.3 664C201.6 663.8 206.9 663.2 213.5 662.6C216.3 662.4 218.5 662.1 218.5 662C218.5 661.7 222.7 661 227.2 660.6C229.6 660.4 231.5 660.1 231.5 660C231.5 659.8 235.1 659.1 240 658.5C242.5 658.1 245.3 657.6 246.2 657.4C247.2 657.1 249.1 656.7 250.5 656.4C251.9 656.2 254.1 655.8 255.5 655.6C256.9 655.3 258.8 654.9 259.8 654.6C262.3 653.8 267.1 652.9 269.7 652.6C270.9 652.5 272.2 652.1 272.6 651.7C273.6 650.7 274.7 652.7 275.4 657ZM557.3 664.6C558.2 664.8 559.8 665.2 560.8 665.4C561.7 665.6 563.9 666.4 565.5 667C568.5 668.2 570.3 668.7 575 669.6C576.4 669.9 581.8 671.2 587 672.6C592.2 673.9 597.5 675.3 598.8 675.5C600 675.8 601.8 676.2 602.9 676.4C603.9 676.6 606.5 677.1 608.6 677.5C610.8 677.8 613.9 678.3 615.5 678.6C617.2 678.9 620.3 679.5 622.5 679.9L626.5 680.6L626.3 689.5C625.5 717.1 617.5 742 605 755.3C592 769.2 575 772.1 551.4 764.4C536.9 759.7 515 748.2 515 745.3C515 744.5 516.3 741.3 517.9 738.2C521.7 730.8 526 721.3 530 711.5C530.6 709.8 531.8 706.5 532.6 704C533.4 701.5 534.5 698.6 535 697.5C536.2 695 538.2 689.6 538.1 689.2C538 689.1 538.7 687.6 539.5 686C540.3 684.4 541 682.9 540.9 682.8C540.6 682.4 542 677.9 543 675.5C543.5 674.4 544.7 670.8 545.6 667.4L547.3 661.4L551.4 662.8C553.7 663.5 556.3 664.4 557.3 664.6ZM410.2 698.7C423.6 713.3 436.7 726.3 450.5 738.8C458.8 746.2 466.3 753.1 467.4 754.1C469.2 755.7 469.2 755.8 467.4 758.6C466.3 760.2 465.2 761.9 464.7 762.5C464.3 763 462.3 765.7 460.3 768.5C453.9 777.1 444.4 787.2 437.2 793.1C432 797.3 417.8 804 413 804.5C410.5 804.8 407.6 805.1 406.6 805.3C404.3 805.7 396.4 804.4 393.5 803.2C381.5 798 380.1 797 368.5 785.5C359.9 776.9 352.5 766.7 345 752.8L340.3 744.2L347.4 739.3C358.5 731.7 379.4 715.3 392.5 703.7C399.1 697.9 404.6 693.1 404.7 693.1C404.8 693 407.3 695.6 410.2 698.7Z" fill="#DC143C"/>
<path d="M408.5 372C408.2 372.4 406.4 373.1 404.5 373.4C400.6 374.2 389 380.6 389 382C389 382.5 388.1 383.1 387.1 383.5C386 383.8 384.8 385 384.5 386.1C384.1 387.1 383.5 387.8 383.1 387.6C382.7 387.3 381.4 389.1 380.1 391.6C378.8 394 377.3 396 376.9 396C376.4 396 376.1 396.3 376.2 396.7C376.3 397.2 375.7 398.9 374.8 400.5C371.5 406.6 370.4 421.7 372.4 431.3C374 438.6 381.2 450.8 386.5 455.1C387.6 456.1 389.8 457.9 391.4 459.3C393 460.7 396.2 462.6 398.4 463.5C400.7 464.5 403.4 465.6 404.5 466.1C408.6 467.8 413.7 468.6 419 468.5C425.7 468.3 433.6 467.2 435.8 466.1C447.6 460.5 451.4 457.8 458.3 450C461.2 446.7 465.8 437.2 467.5 431C469.4 424 469.1 411.8 466.9 406.2C462.3 394.7 457.8 388.3 448 379.8C446.1 378.1 440.2 374.8 439.8 375.1C439.6 375.3 438.5 374.8 437.2 374.1C435.9 373.4 433.9 372.6 432.7 372.3C429.1 371.4 409 371.1 408.5 372Z" fill="#E60606"/>
</svg>
